<?xml version="1.0" standalone="no"?>
<!DOCTYPE svg PUBLIC "-//W3C//DTD SVG 20010904//EN"
 "http://www.w3.org/TR/2001/REC-SVG-20010904/DTD/svg10.dtd">
<svg version="1.0" xmlns="http://www.w3.org/2000/svg"
 width="300.000000pt" height="232.000000pt" viewBox="0 0 300.000000 232.000000"
 preserveAspectRatio="xMidYMid meet">
<metadata>
Created by potrace 1.10, written by Peter Selinger 2001-2011
</metadata>
<g transform="translate(0.000000,232.000000) scale(0.100000,-0.100000)"
fill="#000000" stroke="none">
<path d="M1952 2308 c-16 -16 -15 -44 8 -181 15 -95 17 -133 10 -190 -5 -40
-10 -127 -10 -193 l0 -122 -37 -35 c-44 -43 -110 -79 -268 -147 -156 -67 -231
-118 -346 -237 -151 -156 -235 -299 -287 -492 -24 -88 -26 -111 -26 -289 l0
-192 -35 -10 c-180 -48 -346 -61 -465 -36 -159 33 -280 117 -338 233 -28 57
-32 74 -31 141 1 48 9 101 22 142 25 77 26 106 6 114 -40 15 -112 -52 -134
-123 -6 -21 -11 -79 -11 -129 0 -145 52 -266 164 -378 148 -148 333 -183 796
-150 252 18 431 38 548 62 73 15 73 15 102 -10 37 -31 108 -46 218 -46 48 0
105 -5 127 -10 89 -22 171 -29 208 -19 41 11 57 33 57 79 0 27 -6 34 -42 50
-24 10 -79 24 -122 30 -96 14 -235 63 -257 90 -16 18 -15 25 7 97 13 43 27
112 30 153 9 132 9 132 63 168 28 17 52 32 55 32 3 0 6 -18 6 -39 0 -63 37
-263 61 -327 57 -155 160 -225 235 -161 38 33 27 66 -39 118 -33 26 -57 55
-65 78 -20 54 -10 218 20 311 29 92 38 95 161 51 47 -16 159 -46 249 -66 89
-20 171 -43 180 -52 9 -8 29 -47 44 -85 30 -79 57 -115 95 -123 33 -8 74 27
83 70 l6 30 -28 -33 c-22 -27 -34 -33 -57 -30 -32 3 -36 10 -91 131 -14 32
-36 64 -47 72 -12 8 -99 32 -192 53 -94 22 -204 52 -246 66 -41 14 -87 26
-101 26 -64 0 -112 -132 -113 -305 0 -132 13 -166 86 -222 54 -41 60 -57 28
-74 -31 -16 -82 -3 -111 29 -60 63 -110 224 -125 398 -4 48 -12 83 -23 97
l-17 21 -44 -26 c-82 -49 -91 -65 -100 -180 -4 -57 -17 -132 -28 -168 -11 -36
-21 -75 -21 -86 0 -37 37 -70 102 -94 35 -12 72 -26 83 -31 11 -5 62 -16 114
-24 108 -19 131 -28 131 -55 0 -26 -66 -76 -83 -62 -25 21 -185 52 -270 52
-110 0 -180 15 -218 47 l-31 26 -87 -17 c-217 -41 -736 -83 -901 -71 -216 15
-338 62 -435 167 -100 108 -168 294 -145 400 13 63 46 125 77 146 22 14 23 13
23 -9 0 -13 -7 -46 -15 -73 -8 -27 -15 -86 -15 -131 0 -74 3 -89 35 -153 61
-120 176 -206 335 -247 136 -36 506 5 546 60 10 13 11 58 7 174 -4 123 -2 175
11 245 41 212 131 382 290 545 112 115 125 124 276 197 308 148 323 157 364
213 22 29 23 44 30 251 6 184 4 238 -10 325 -10 58 -15 108 -11 111 3 3 43
-24 88 -60 45 -36 89 -66 97 -66 7 0 27 13 42 30 24 26 29 28 40 15 8 -10 31
-15 64 -15 29 0 70 -9 95 -20 24 -11 61 -23 82 -26 20 -4 51 -15 68 -25 52
-32 39 -82 -60 -245 -57 -92 -56 -84 -24 -244 22 -114 15 -248 -19 -355 -35
-107 -35 -200 -2 -272 38 -81 79 -113 204 -161 185 -71 280 -150 317 -263 20
-58 36 -65 28 -11 -19 127 -139 233 -350 311 -108 39 -136 60 -169 126 -36 76
-37 153 0 265 36 113 44 243 21 360 -32 160 -33 151 24 239 55 86 91 168 91
206 0 39 -48 83 -105 96 -27 6 -69 20 -93 30 -26 12 -65 19 -102 19 l-60 0 0
38 c0 42 -21 79 -38 68 -7 -4 -12 -24 -12 -44 0 -39 -18 -83 -35 -89 -6 -2
-50 28 -98 67 -48 38 -91 70 -95 70 -5 0 -13 -5 -20 -12z"/>
</g>
</svg>
